<svg width="32" height="32" viewBox="0 0 32 32" fill="none" xmlns="http://www.w3.org/2000/svg">
<path fill-rule="evenodd" clip-rule="evenodd" d="M24.9431 11.7278C24.9431 13.4024 25.3857 14.3893 26.3597 15.5268C27.0978 16.3648 27.3337 17.4404 27.3337 18.6073C27.3337 19.7729 26.9507 20.8795 26.1834 21.7779C25.179 22.8549 23.7623 23.5424 22.3166 23.662C20.2215 23.8405 18.1253 23.9909 16.001 23.9909C13.8754 23.9909 11.7804 23.9011 9.68533 23.662C8.23827 23.5424 6.82169 22.8549 5.81855 21.7779C5.05129 20.8795 4.66699 19.7729 4.66699 18.6073C4.66699 17.4404 4.90419 16.3648 5.64098 15.5268C6.64545 14.3893 7.05889 13.4024 7.05889 11.7278V11.1597C7.05889 8.91714 7.6181 7.45071 8.76966 6.01516C10.4817 3.92162 13.2261 2.66602 15.9414 2.66602H16.0606C18.8342 2.66602 21.6673 3.98204 23.3503 6.16556C24.4422 7.57156 24.9431 8.97622 24.9431 11.1597V11.7278ZM12.0986 26.7471C12.0986 26.0758 12.7148 25.7681 13.2846 25.6365C13.9511 25.4956 18.0127 25.4956 18.6793 25.6365C19.2491 25.7681 19.8653 26.0758 19.8653 26.7471C19.8321 27.3863 19.4571 27.9531 18.939 28.313C18.2671 28.8367 17.4787 29.1683 16.6545 29.2879C16.1986 29.347 15.7507 29.3483 15.3107 29.2879C14.4851 29.1683 13.6967 28.8367 13.0262 28.3116C12.5067 27.9531 12.1317 27.3863 12.0986 26.7471Z" fill="white"/>
</svg>
