<svg width="32" height="32" viewBox="0 0 32 32" fill="none" xmlns="http://www.w3.org/2000/svg">
<path d="M26.6667 8.99935C28.6917 8.99935 30.3333 7.35773 30.3333 5.33268C30.3333 3.30764 28.6917 1.66602 26.6667 1.66602C24.6416 1.66602 23 3.30764 23 5.33268C23 7.35773 24.6416 8.99935 26.6667 8.99935Z" fill="white"/>
<path d="M25.387 10.866C23.2937 10.4127 21.587 8.70602 21.1337 6.61268C20.9603 5.79935 20.947 5.01268 21.0937 4.26602C21.267 3.43935 20.6537 2.66602 19.8003 2.66602H9.33366C5.65366 2.66602 2.66699 5.65268 2.66699 9.33268V18.5993C2.66699 22.2793 5.65366 25.266 9.33366 25.266H11.3337C11.707 25.266 12.187 25.506 12.4003 25.7994L14.4003 28.4527C15.2803 29.626 16.7203 29.626 17.6003 28.4527L19.6003 25.7994C19.8537 25.466 20.2403 25.266 20.667 25.266H22.6803C26.3603 25.266 29.3337 22.2927 29.3337 18.6127V12.1993C29.3337 11.3593 28.5603 10.746 27.7337 10.906C26.987 11.0393 26.2003 11.0393 25.387 10.866ZM10.667 15.9993C9.92033 15.9993 9.33366 15.3993 9.33366 14.666C9.33366 13.9327 9.92033 13.3327 10.667 13.3327C11.4003 13.3327 12.0003 13.9327 12.0003 14.666C12.0003 15.3993 11.4137 15.9993 10.667 15.9993ZM16.0003 15.9993C15.2537 15.9993 14.667 15.3993 14.667 14.666C14.667 13.9327 15.2537 13.3327 16.0003 13.3327C16.7337 13.3327 17.3337 13.9327 17.3337 14.666C17.3337 15.3993 16.747 15.9993 16.0003 15.9993ZM21.3337 15.9993C20.587 15.9993 20.0003 15.3993 20.0003 14.666C20.0003 13.9327 20.587 13.3327 21.3337 13.3327C22.067 13.3327 22.667 13.9327 22.667 14.666C22.667 15.3993 22.0803 15.9993 21.3337 15.9993Z" fill="white"/>
</svg>
