<svg width="25" height="24" viewBox="0 0 25 24" fill="none" xmlns="http://www.w3.org/2000/svg">
<path d="M9.209 20.7733V17.7156C9.209 16.9351 9.84639 16.3023 10.6326 16.3023H13.5068C13.8844 16.3023 14.2465 16.4512 14.5135 16.7163C14.7805 16.9813 14.9305 17.3408 14.9305 17.7156V20.7733C14.9281 21.0978 15.0563 21.4099 15.2866 21.6402C15.5169 21.8705 15.8303 22 16.1571 22H18.118C19.0338 22.0023 19.913 21.6428 20.5614 21.0008C21.2098 20.3588 21.5742 19.487 21.5742 18.5778V9.86686C21.5742 9.13246 21.2463 8.43584 20.6788 7.96467L14.0082 2.67587C12.8479 1.74856 11.1853 1.7785 10.0596 2.74698L3.54123 7.96467C2.94696 8.42195 2.59177 9.12064 2.57422 9.86686V18.5689C2.57422 20.4639 4.1216 22 6.03039 22H7.94651C8.62545 22 9.17722 21.4562 9.18214 20.7822L9.209 20.7733Z" fill="#191919"/>
</svg>
