<svg width="32" height="32" viewBox="0 0 32 32" fill="none" xmlns="http://www.w3.org/2000/svg">
<path d="M21.3333 2.66602H10.6667C6.98667 2.66602 4 5.65268 4 9.33268V22.666C4 26.346 6.98667 29.3327 10.6667 29.3327H21.3333C25.0133 29.3327 28 26.346 28 22.666V9.33268C28 5.65268 25.0133 2.66602 21.3333 2.66602ZM11.8133 24.8393C11.56 25.0927 11.2267 25.226 10.88 25.226C10.52 25.226 10.1867 25.0927 9.93333 24.8393C9.68 24.586 9.53333 24.2527 9.53333 23.8927C9.53333 23.546 9.68 23.1993 9.93333 22.946C10.0533 22.826 10.2 22.7327 10.36 22.666C10.6933 22.5327 11.0533 22.5327 11.3867 22.666C11.4667 22.6927 11.5467 22.7327 11.6133 22.786C11.6933 22.826 11.76 22.8927 11.8133 22.946C12.0667 23.1993 12.2133 23.546 12.2133 23.8927C12.2133 24.2527 12.0667 24.586 11.8133 24.8393ZM9.53333 18.5593C9.53333 18.386 9.57333 18.2127 9.64 18.0527C9.70667 17.8793 9.8 17.746 9.93333 17.6127C10.24 17.306 10.7067 17.1593 11.1333 17.2527C11.2133 17.266 11.3067 17.2927 11.3867 17.3327C11.4667 17.3593 11.5467 17.3993 11.6133 17.4527C11.6933 17.4927 11.76 17.5593 11.8133 17.6127C11.9333 17.746 12.04 17.8793 12.1067 18.0527C12.1733 18.2127 12.2 18.386 12.2 18.5593C12.2 18.9193 12.0667 19.2527 11.8133 19.506C11.56 19.7593 11.2267 19.8927 10.88 19.8927C10.6933 19.8927 10.52 19.8527 10.36 19.786C10.2 19.7193 10.0533 19.626 9.93333 19.506C9.68 19.2527 9.53333 18.9193 9.53333 18.5593ZM17.1467 24.8393C17.0267 24.9593 16.88 25.0527 16.72 25.1194C16.56 25.186 16.3867 25.226 16.2 25.226C15.8533 25.226 15.52 25.0927 15.2667 24.8393C15.0133 24.586 14.8667 24.2527 14.8667 23.8927C14.8667 23.7993 14.88 23.7193 14.8933 23.626C14.92 23.546 14.9467 23.466 14.9733 23.386C15.0133 23.306 15.0533 23.226 15.0933 23.146C15.1467 23.0793 15.2 23.0127 15.2667 22.946C15.3867 22.826 15.5333 22.7327 15.6933 22.666C16.1867 22.466 16.7733 22.5727 17.1467 22.946C17.4 23.1993 17.5333 23.546 17.5333 23.8927C17.5333 24.2527 17.4 24.586 17.1467 24.8393ZM17.1467 19.506C16.8933 19.7593 16.56 19.8927 16.2 19.8927C15.8533 19.8927 15.52 19.7593 15.2667 19.506C15.0133 19.2527 14.8667 18.9193 14.8667 18.5593C14.8667 18.2127 15.0133 17.866 15.2667 17.6127C15.76 17.1193 16.6533 17.1193 17.1467 17.6127C17.2667 17.746 17.3733 17.8793 17.44 18.0527C17.5067 18.2127 17.5333 18.386 17.5333 18.5593C17.5333 18.9193 17.4 19.2527 17.1467 19.506ZM12 13.946C10.6267 13.946 9.49333 12.826 9.49333 11.4393V10.106C9.49333 8.73268 10.6133 7.59935 12 7.59935H20C21.3733 7.59935 22.5067 8.71935 22.5067 10.106V11.4393C22.5067 12.8127 21.3867 13.946 20 13.946H12ZM22.48 24.8393C22.2267 25.0927 21.8933 25.226 21.5333 25.226C21.36 25.226 21.1867 25.186 21.0267 25.1194C20.8667 25.0527 20.72 24.9593 20.6 24.8393C20.3467 24.586 20.2133 24.2527 20.2133 23.8927C20.2133 23.546 20.3467 23.1993 20.6 22.946C20.96 22.5727 21.56 22.466 22.0533 22.666C22.2133 22.7327 22.36 22.826 22.48 22.946C22.7333 23.1993 22.8667 23.546 22.8667 23.8927C22.8667 24.2527 22.7333 24.586 22.48 24.8393ZM22.7733 19.066C22.7067 19.226 22.6133 19.3727 22.48 19.506C22.2267 19.7593 21.8933 19.8927 21.5333 19.8927C21.1867 19.8927 20.8533 19.7593 20.6 19.506C20.3467 19.2527 20.2 18.9193 20.2 18.5593C20.2 18.2127 20.3467 17.866 20.6 17.6127C21.0933 17.1193 21.9867 17.1193 22.48 17.6127C22.7333 17.866 22.88 18.2127 22.88 18.5593C22.88 18.7327 22.84 18.906 22.7733 19.066Z" fill="white"/>
</svg>
