<svg width="32" height="32" viewBox="0 0 32 32" fill="none" xmlns="http://www.w3.org/2000/svg">
<path d="M22.3333 4.74602V2.66602C22.3333 2.11935 21.88 1.66602 21.3333 1.66602C20.7866 1.66602 20.3333 2.11935 20.3333 2.66602V4.66602H11.6666V2.66602C11.6666 2.11935 11.2133 1.66602 10.6666 1.66602C10.12 1.66602 9.66665 2.11935 9.66665 2.66602V4.74602C6.06665 5.07935 4.31998 7.22602 4.05331 10.4127C4.02665 10.7993 4.34665 11.1193 4.71998 11.1193H27.28C27.6666 11.1193 27.9866 10.786 27.9466 10.4127C27.68 7.22602 25.9333 5.07935 22.3333 4.74602Z" fill="white"/>
<path d="M26.6667 13.1191H5.33333C4.6 13.1191 4 13.7191 4 14.4525V22.6658C4 26.6658 6 29.3325 10.6667 29.3325H21.3333C26 29.3325 28 26.6658 28 22.6658V14.4525C28 13.7191 27.4 13.1191 26.6667 13.1191ZM12.28 24.2791C12.2133 24.3325 12.1467 24.3991 12.08 24.4391C12 24.4925 11.92 24.5325 11.84 24.5591C11.76 24.5991 11.68 24.6258 11.6 24.6391C11.5067 24.6525 11.4267 24.6658 11.3333 24.6658C11.16 24.6658 10.9867 24.6258 10.8267 24.5591C10.6533 24.4925 10.52 24.3991 10.3867 24.2791C10.1467 24.0258 10 23.6791 10 23.3325C10 22.9858 10.1467 22.6391 10.3867 22.3858C10.52 22.2658 10.6533 22.1725 10.8267 22.1058C11.0667 21.9991 11.3333 21.9725 11.6 22.0258C11.68 22.0391 11.76 22.0658 11.84 22.1058C11.92 22.1325 12 22.1725 12.08 22.2258C12.1467 22.2791 12.2133 22.3325 12.28 22.3858C12.52 22.6391 12.6667 22.9858 12.6667 23.3325C12.6667 23.6791 12.52 24.0258 12.28 24.2791ZM12.28 19.6125C12.0267 19.8525 11.68 19.9991 11.3333 19.9991C10.9867 19.9991 10.64 19.8525 10.3867 19.6125C10.1467 19.3591 10 19.0125 10 18.6658C10 18.3191 10.1467 17.9725 10.3867 17.7191C10.76 17.3458 11.3467 17.2258 11.84 17.4391C12.0133 17.5058 12.16 17.5991 12.28 17.7191C12.52 17.9725 12.6667 18.3191 12.6667 18.6658C12.6667 19.0125 12.52 19.3591 12.28 19.6125ZM16.9467 24.2791C16.6933 24.5191 16.3467 24.6658 16 24.6658C15.6533 24.6658 15.3067 24.5191 15.0533 24.2791C14.8133 24.0258 14.6667 23.6791 14.6667 23.3325C14.6667 22.9858 14.8133 22.6391 15.0533 22.3858C15.5467 21.8925 16.4533 21.8925 16.9467 22.3858C17.1867 22.6391 17.3333 22.9858 17.3333 23.3325C17.3333 23.6791 17.1867 24.0258 16.9467 24.2791ZM16.9467 19.6125C16.88 19.6658 16.8133 19.7191 16.7467 19.7725C16.6667 19.8258 16.5867 19.8658 16.5067 19.8925C16.4267 19.9325 16.3467 19.9591 16.2667 19.9725C16.1733 19.9858 16.0933 19.9991 16 19.9991C15.6533 19.9991 15.3067 19.8525 15.0533 19.6125C14.8133 19.3591 14.6667 19.0125 14.6667 18.6658C14.6667 18.3191 14.8133 17.9725 15.0533 17.7191C15.1733 17.5991 15.32 17.5058 15.4933 17.4391C15.9867 17.2258 16.5733 17.3458 16.9467 17.7191C17.1867 17.9725 17.3333 18.3191 17.3333 18.6658C17.3333 19.0125 17.1867 19.3591 16.9467 19.6125ZM21.6133 24.2791C21.36 24.5191 21.0133 24.6658 20.6667 24.6658C20.32 24.6658 19.9733 24.5191 19.72 24.2791C19.48 24.0258 19.3333 23.6791 19.3333 23.3325C19.3333 22.9858 19.48 22.6391 19.72 22.3858C20.2133 21.8925 21.12 21.8925 21.6133 22.3858C21.8533 22.6391 22 22.9858 22 23.3325C22 23.6791 21.8533 24.0258 21.6133 24.2791ZM21.6133 19.6125C21.5467 19.6658 21.48 19.7191 21.4133 19.7725C21.3333 19.8258 21.2533 19.8658 21.1733 19.8925C21.0933 19.9325 21.0133 19.9591 20.9333 19.9725C20.84 19.9858 20.7467 19.9991 20.6667 19.9991C20.32 19.9991 19.9733 19.8525 19.72 19.6125C19.48 19.3591 19.3333 19.0125 19.3333 18.6658C19.3333 18.3191 19.48 17.9725 19.72 17.7191C19.8533 17.5991 19.9867 17.5058 20.16 17.4391C20.4 17.3325 20.6667 17.3058 20.9333 17.3591C21.0133 17.3725 21.0933 17.3991 21.1733 17.4391C21.2533 17.4658 21.3333 17.5058 21.4133 17.5591C21.48 17.6125 21.5467 17.6658 21.6133 17.7191C21.8533 17.9725 22 18.3191 22 18.6658C22 19.0125 21.8533 19.3591 21.6133 19.6125Z" fill="white"/>
</svg>
